<?xml version="1.0" encoding="UTF-8" standalone="no"?>
<!DOCTYPE svg PUBLIC "-//W3C//DTD SVG 1.1//EN"
 "http://www.w3.org/Graphics/SVG/1.1/DTD/svg11.dtd">
<!-- Generated by graphviz version 2.43.0 (0)
 -->
<!-- Title: G Pages: 1 -->
<svg width="1051pt" height="114pt"
 viewBox="0.00 0.00 1051.00 114.00" xmlns="http://www.w3.org/2000/svg" xmlns:xlink="http://www.w3.org/1999/xlink">
<g id="graph0" class="graph" transform="scale(1 1) rotate(0) translate(4 110)">
<title>G</title>
<polygon fill="white" stroke="transparent" points="-4,4 -4,-110 1047,-110 1047,4 -4,4"/>
<g id="clust1" class="cluster">
<title>cluster_module.mis_claves_ssh</title>
<polygon fill="none" stroke="black" points="8,-8 8,-83 614,-83 614,-8 8,-8"/>
<text text-anchor="middle" x="311" y="-67.8" font-family="sans-serif" font-size="14.00">module.mis_claves_ssh</text>
</g>
<!-- data.aws_ami.ubuntu -->
<g id="node1" class="node">
<title>data.aws_ami.ubuntu</title>
<polygon fill="none" stroke="black" points="810.5,-106 644.5,-106 644.5,-70 810.5,-70 810.5,-106"/>
<text text-anchor="middle" x="727.5" y="-84.3" font-family="sans-serif" font-size="14.00">data.aws_ami.ubuntu</text>
</g>
<!-- aws_instance.mi_servidor -->
<g id="node2" class="node">
<title>aws_instance.mi_servidor</title>
<polygon fill="none" stroke="black" points="1043,-79 849,-79 849,-43 1043,-43 1043,-79"/>
<text text-anchor="middle" x="946" y="-57.3" font-family="sans-serif" font-size="14.00">aws_instance.mi_servidor</text>
</g>
<!-- aws_instance.mi_servidor&#45;&gt;data.aws_ami.ubuntu -->
<g id="edge1" class="edge">
<title>aws_instance.mi_servidor&#45;&gt;data.aws_ami.ubuntu</title>
<path fill="none" stroke="black" d="M848.78,-73C839.41,-74.17 829.91,-75.35 820.58,-76.52"/>
<polygon fill="black" stroke="black" points="820.03,-73.06 810.54,-77.77 820.89,-80 820.03,-73.06"/>
</g>
<!-- aws_key_pair.mi_clave -->
<g id="node3" class="node">
<title>aws_key_pair.mi_clave</title>
<polygon fill="none" stroke="black" points="813,-52 642,-52 642,-16 813,-16 813,-52"/>
<text text-anchor="middle" x="727.5" y="-30.3" font-family="sans-serif" font-size="14.00">aws_key_pair.mi_clave</text>
</g>
<!-- aws_instance.mi_servidor&#45;&gt;aws_key_pair.mi_clave -->
<g id="edge2" class="edge">
<title>aws_instance.mi_servidor&#45;&gt;aws_key_pair.mi_clave</title>
<path fill="none" stroke="black" d="M848.78,-49C840.26,-47.94 831.63,-46.86 823.12,-45.8"/>
<polygon fill="black" stroke="black" points="823.56,-42.33 813.2,-44.56 822.69,-49.27 823.56,-42.33"/>
</g>
<!-- module.mis_claves_ssh.null_resource.exportador_de_claves -->
<g id="node4" class="node">
<title>module.mis_claves_ssh.null_resource.exportador_de_claves</title>
<polygon fill="none" stroke="black" points="606,-52 343,-52 343,-16 606,-16 606,-52"/>
<text text-anchor="middle" x="474.5" y="-30.3" font-family="sans-serif" font-size="14.00">null_resource.exportador_de_claves</text>
</g>
<!-- aws_key_pair.mi_clave&#45;&gt;module.mis_claves_ssh.null_resource.exportador_de_claves -->
<g id="edge3" class="edge">
<title>aws_key_pair.mi_clave&#45;&gt;module.mis_claves_ssh.null_resource.exportador_de_claves</title>
<path fill="none" stroke="black" d="M641.87,-34C633.59,-34 625.03,-34 616.38,-34"/>
<polygon fill="black" stroke="black" points="616.19,-30.5 606.19,-34 616.19,-37.5 616.19,-30.5"/>
</g>
<!-- module.mis_claves_ssh.ephemeral.tls_private_key.mi_clave_ssh -->
<g id="node5" class="node">
<title>module.mis_claves_ssh.ephemeral.tls_private_key.mi_clave_ssh</title>
<polygon fill="none" stroke="black" points="307,-52 16,-52 16,-16 307,-16 307,-52"/>
<text text-anchor="middle" x="161.5" y="-30.3" font-family="sans-serif" font-size="14.00">ephemeral.tls_private_key.mi_clave_ssh</text>
</g>
<!-- module.mis_claves_ssh.null_resource.exportador_de_claves&#45;&gt;module.mis_claves_ssh.ephemeral.tls_private_key.mi_clave_ssh -->
<g id="edge4" class="edge">
<title>module.mis_claves_ssh.null_resource.exportador_de_claves&#45;&gt;module.mis_claves_ssh.ephemeral.tls_private_key.mi_clave_ssh</title>
<path fill="none" stroke="black" d="M342.96,-34C334.48,-34 325.89,-34 317.31,-34"/>
<polygon fill="black" stroke="black" points="317.24,-30.5 307.24,-34 317.24,-37.5 317.24,-30.5"/>
</g>
</g>
</svg>
