<?xml version="1.0" encoding="UTF-8" standalone="no"?>
<!DOCTYPE svg PUBLIC "-//W3C//DTD SVG 1.1//EN"
 "http://www.w3.org/Graphics/SVG/1.1/DTD/svg11.dtd">
<!-- Generated by graphviz version 2.43.0 (0)
 -->
<!-- Title: G Pages: 1 -->
<svg width="620pt" height="206pt"
 viewBox="0.00 0.00 620.00 206.00" xmlns="http://www.w3.org/2000/svg" xmlns:xlink="http://www.w3.org/1999/xlink">
<g id="graph0" class="graph" transform="scale(1 1) rotate(0) translate(4 202)">
<title>G</title>
<polygon fill="white" stroke="transparent" points="-4,4 -4,-202 616,-202 616,4 -4,4"/>
<!-- docker_container.balanceador_de_carga -->
<g id="node1" class="node">
<title>docker_container.balanceador_de_carga</title>
<polygon fill="none" stroke="black" points="567,-198 274,-198 274,-162 567,-162 567,-198"/>
<text text-anchor="middle" x="420.5" y="-176.3" font-family="sans-serif" font-size="14.00">docker_container.balanceador_de_carga</text>
</g>
<!-- docker_image.mi_imagen -->
<g id="node5" class="node">
<title>docker_image.mi_imagen</title>
<polygon fill="none" stroke="black" points="193,-117 0,-117 0,-81 193,-81 193,-117"/>
<text text-anchor="middle" x="96.5" y="-95.3" font-family="sans-serif" font-size="14.00">docker_image.mi_imagen</text>
</g>
<!-- docker_container.balanceador_de_carga&#45;&gt;docker_image.mi_imagen -->
<g id="edge1" class="edge">
<title>docker_container.balanceador_de_carga&#45;&gt;docker_image.mi_imagen</title>
<path fill="none" stroke="black" d="M273.9,-163.19C258.63,-160.29 243.43,-156.92 229,-153 199.75,-145.06 168.3,-132.31 143.49,-121.19"/>
<polygon fill="black" stroke="black" points="144.88,-117.98 134.33,-117.02 141.98,-124.35 144.88,-117.98"/>
</g>
<!-- docker_container.mis_contenedores -->
<g id="node2" class="node">
<title>docker_container.mis_contenedores</title>
<polygon fill="none" stroke="black" points="552,-144 289,-144 289,-108 552,-108 552,-144"/>
<text text-anchor="middle" x="420.5" y="-122.3" font-family="sans-serif" font-size="14.00">docker_container.mis_contenedores</text>
</g>
<!-- docker_container.mis_contenedores&#45;&gt;docker_image.mi_imagen -->
<g id="edge2" class="edge">
<title>docker_container.mis_contenedores&#45;&gt;docker_image.mi_imagen</title>
<path fill="none" stroke="black" d="M288.99,-115.06C260.43,-112.66 230.53,-110.15 203.08,-107.85"/>
<polygon fill="black" stroke="black" points="203.34,-104.36 193.08,-107.01 202.75,-111.34 203.34,-104.36"/>
</g>
<!-- docker_container.mis_contenedores_personalizados -->
<g id="node3" class="node">
<title>docker_container.mis_contenedores_personalizados</title>
<polygon fill="none" stroke="black" points="607.5,-90 233.5,-90 233.5,-54 607.5,-54 607.5,-90"/>
<text text-anchor="middle" x="420.5" y="-68.3" font-family="sans-serif" font-size="14.00">docker_container.mis_contenedores_personalizados</text>
</g>
<!-- docker_container.mis_contenedores_personalizados&#45;&gt;docker_image.mi_imagen -->
<g id="edge3" class="edge">
<title>docker_container.mis_contenedores_personalizados&#45;&gt;docker_image.mi_imagen</title>
<path fill="none" stroke="black" d="M233.12,-87.63C223.01,-88.48 213.03,-89.31 203.35,-90.12"/>
<polygon fill="black" stroke="black" points="203.06,-86.64 193.39,-90.96 203.64,-93.61 203.06,-86.64"/>
</g>
<!-- docker_container.mis_contenedores_personalizados2 -->
<g id="node4" class="node">
<title>docker_container.mis_contenedores_personalizados2</title>
<polygon fill="none" stroke="black" points="612,-36 229,-36 229,0 612,0 612,-36"/>
<text text-anchor="middle" x="420.5" y="-14.3" font-family="sans-serif" font-size="14.00">docker_container.mis_contenedores_personalizados2</text>
</g>
<!-- docker_container.mis_contenedores_personalizados2&#45;&gt;docker_image.mi_imagen -->
<g id="edge4" class="edge">
<title>docker_container.mis_contenedores_personalizados2&#45;&gt;docker_image.mi_imagen</title>
<path fill="none" stroke="black" d="M267.76,-36C254.57,-38.62 241.49,-41.61 229,-45 199.75,-52.94 168.3,-65.69 143.49,-76.81"/>
<polygon fill="black" stroke="black" points="141.98,-73.65 134.33,-80.98 144.88,-80.02 141.98,-73.65"/>
</g>
</g>
</svg>
